<svg xmlns="http://www.w3.org/2000/svg" width="13.139" height="20.4" viewBox="0 0 13.139 20.4">
  <g id="logo" transform="translate(-180.86 -45.6)">
    <path id="Caminho_13" data-name="Caminho 13" d="M172,17.325a3.935,3.935,0,0,1-.678,2.2,5.111,5.111,0,0,1-1.955,1.733,7.472,7.472,0,0,1-3.04.843V24h-1.765V22.1a7.871,7.871,0,0,1-4.126-1.382,3.67,3.67,0,0,1-1.575-3.092h3.312a2.413,2.413,0,0,0,.679,1.522,2.994,2.994,0,0,0,1.71.75V14.749a26.362,26.362,0,0,1-2.959-.8,4.925,4.925,0,0,1-1.954-1.312,3.546,3.546,0,0,1-.788-2.436A3.943,3.943,0,0,1,160.435,7a7.3,7.3,0,0,1,4.126-1.5V3.6h1.765V5.5a6.967,6.967,0,0,1,3.827,1.312,4.127,4.127,0,0,1,1.656,3.045H168.5a2.1,2.1,0,0,0-.651-1.288,2.955,2.955,0,0,0-1.52-.8v5.059a21.041,21.041,0,0,1,2.959.8,4.518,4.518,0,0,1,1.927,1.288A3.456,3.456,0,0,1,172,17.325Zm-9.99-7.261a1.84,1.84,0,0,0,.652,1.5,5.232,5.232,0,0,0,1.9.866V7.7a3.294,3.294,0,0,0-1.873.726A2.1,2.1,0,0,0,162.009,10.064Zm4.317,9.837a3.25,3.25,0,0,0,1.873-.82,2.209,2.209,0,0,0,.678-1.616,1.718,1.718,0,0,0-.678-1.452,4.954,4.954,0,0,0-1.873-.867Z" transform="translate(22 42)" fill="#49aa26"/>
  </g>
</svg>
