<svg id="Layer_1" height="512" viewBox="0 0 512 512" width="512" xmlns="http://www.w3.org/2000/svg" data-name="Layer 1"><path d="m452.49 248.49c-8.36 28.86-26.52 57.96-46.79 79.63v-13.13c0-8.11.35-17.82-1.93-26.69 16.21-10.31 36.72-24.89 48.72-39.81z" fill="#e2e4ed"/><path d="m403.77 288.3c-3.57-13.88-13.57-25.69-41.39-26.05-18.39-.24-31.21 3.95-39.83 8.77a30.107 30.107 0 0 1 -34.85-4.13l-1.56-1.42c-18.16-16.46-44.64-20.63-66.57-9.67-6.66 3.33-12.34 7.74-15.68 13.56 11.07 8.4 14.75 7.12 19.13 11.81a18.524 18.524 0 0 1 4.89 12.69v167.31a39.825 39.825 0 0 0 39.82 39.83h14.31a21.278 21.278 0 0 0 19.41-12.55 96.011 96.011 0 0 0 24.38 3.58c13.72 0 28.2-4.3 28.68-22.33a5.7 5.7 0 0 1 5.7-5.7h15.89a29.6 29.6 0 0 0 29.6-29.6v-119.41c0-8.11.35-17.82-1.93-26.69z" fill="#7b6f98"/><path d="m323.21 11.11a97.085 97.085 0 1 1 -97.02 97.08 97.055 97.055 0 0 1 97.02-97.08z" fill="#7d8696"/><path d="m227.91 293.86v119.99c-90.08-16.68-172.37-85.73-168.25-215.83 2.66-84 63.64-159.58 138.15-187.02a174.186 174.186 0 0 0 -55.98 128.13c0 50.61 26.29 98.2 62.06 130.23 11.07 8.4 14.75 7.12 19.13 11.81a18.524 18.524 0 0 1 4.89 12.69z" fill="#e2e4ed"/><path d="m323.21 30.6a77.6 77.6 0 1 1 -77.54 77.59 77.562 77.562 0 0 1 77.54-77.59z" fill="#e97187"/><path d="m89.705 198.02c1.924-60.746 34.328-117.083 80.312-154a175.572 175.572 0 0 1 27.804-33.02c-74.51 27.44-135.45 103.02-138.11 187.02-4.12 130.1 78.289 199.15 168.289 215.83v-7.639c-78-25.361-141.951-92.731-138.295-208.191z" fill="#b9bcc6"/><path d="m275.67 108.19a77.591 77.591 0 0 1 62.54-76.126 77.6 77.6 0 1 0 0 152.262 77.594 77.594 0 0 1 -62.54-76.136z" fill="#c46076"/><path d="m258 461.17v-167.31a18.567 18.567 0 0 0 -4.935-12.69c-4.38-4.69-8.082-3.41-19.152-11.81 3.34-5.82 9.008-10.23 15.668-13.56a57.6 57.6 0 0 1 11.013-4.155 58.556 58.556 0 0 0 -41.021 4.155c-6.66 3.33-12.342 7.74-15.682 13.56 11.07 8.4 14.8 7.12 19.175 11.81a18.566 18.566 0 0 1 4.934 12.69v167.31a39.748 39.748 0 0 0 39.73 39.83h14.31a21.531 21.531 0 0 0 6.645-1.055 39.8 39.8 0 0 1 -30.685-38.775z" fill="#5c5472"/><g fill="#284268"><path d="m320.582 122.218h28.118a6 6 0 0 0 0-12h-22.118v-37.69a6 6 0 0 0 -12 0v43.69a6 6 0 0 0 6 6z"/><path d="m323.21 211.278a103.084 103.084 0 1 0 -103.02-103.084 103.168 103.168 0 0 0 103.02 103.084zm0-194.168a91.084 91.084 0 1 1 -91.02 91.084 91.155 91.155 0 0 1 91.02-91.084z"/><path d="m323.21 191.788a83.594 83.594 0 1 0 -83.543-83.594 83.663 83.663 0 0 0 83.543 83.594zm-58.843-88.88h-12.185c-.1 0-.2.01-.3.015a71.285 71.285 0 0 1 16.055-40.132l9.226 9.226a6 6 0 0 0 8.485-8.485l-9.335-9.332a71.2 71.2 0 0 1 40.232-17.275c0 .037-.006.074-.006.112v13.7a6 6 0 0 0 12 0v-13.7c0-.073-.008-.143-.011-.215a71.185 71.185 0 0 1 40.925 16.81 5.949 5.949 0 0 0 -.658.538l-9.365 9.365a6 6 0 0 0 8.486 8.485l9.365-9.365a6.089 6.089 0 0 0 .529-.655 71.278 71.278 0 0 1 16.745 41.142 5.971 5.971 0 0 0 -1.659-.238h-12.185a6 6 0 0 0 0 12h12.189a5.98 5.98 0 0 0 1.548-.209 71.312 71.312 0 0 1 -17.477 40.659 5.945 5.945 0 0 0 -1.141-1.648l-7.91-7.911a6 6 0 0 0 -8.486 8.486l7.911 7.91a5.936 5.936 0 0 0 1.522 1.075 71.174 71.174 0 0 1 -40.576 16.318 6.012 6.012 0 0 0 .252-1.717v-10.787a6 6 0 0 0 -12 0v10.791a5.994 5.994 0 0 0 .226 1.612 71.187 71.187 0 0 1 -39.759-16.69 5.978 5.978 0 0 0 .732-.6l7.91-7.91a6 6 0 0 0 -8.485-8.486l-7.911 7.911a6.018 6.018 0 0 0 -.6.729 71.3 71.3 0 0 1 -16.666-39.54c.064 0 .126.009.191.009h12.185a6 6 0 0 0 0-12z"/><path d="m103.953 352.429c29.182 33.182 70.92 56.625 117.956 66.359v42.382a45.829 45.829 0 0 0 45.829 45.83h14.3a27.28 27.28 0 0 0 22.305-11.584c9.818 2.322 32.02 6.022 45.578-3.774 6.646-4.8 10.306-12.282 10.588-21.638h15.6a35.6 35.6 0 0 0 35.6-35.6v-103.969c21.683-23.7 38.6-52.825 46.553-80.272a6 6 0 0 0 -10.438-5.43c-8.327 10.353-22.089 21.9-40.928 34.385-5.668-12.455-17.936-22.524-44.429-22.87-16.721-.225-31.129 2.99-42.836 9.536a24.043 24.043 0 0 1 -27.889-3.342l-1.562-1.416c-20.08-18.207-49.53-22.464-73.284-10.594a47.45 47.45 0 0 0 -13.795 9.992c-34.7-33.29-55.26-78.176-55.26-121.3a169.2 169.2 0 0 1 54.042-123.724 6 6 0 0 0 -6.151-10.03c-37.917 13.963-72.977 40.35-98.722 74.3-27.041 35.659-42.031 76.518-43.349 118.16-1.011 31.963 3.094 61.7 12.2 88.389a194.97 194.97 0 0 0 38.092 66.21zm333.084-80.484a208.884 208.884 0 0 1 -25.327 40.071c.029-6.166.052-13.55-1.236-20.9a299.446 299.446 0 0 0 26.563-19.171zm-371.382-73.733c1.239-39.141 15.388-77.624 40.916-111.29a215.509 215.509 0 0 1 66.982-58.228 181.267 181.267 0 0 0 -37.721 110.432c0 48.435 23.945 98.792 64.052 134.7l.017-.02c.122.11.23.232.363.333a65.393 65.393 0 0 0 13.637 8.169c2.382 1.1 3.469 1.6 4.74 2.956a12.494 12.494 0 0 1 3.268 8.593v32.355a6 6 0 0 0 12 0v-32.351a24.448 24.448 0 0 0 -6.5-16.787 23.917 23.917 0 0 0 -8.49-5.663 53.626 53.626 0 0 1 -6.479-3.411 36.622 36.622 0 0 1 9.812-6.83c19.361-9.676 43.416-6.16 59.859 8.75l1.562 1.416a36.03 36.03 0 0 0 41.806 4.924c9.847-5.5 22.235-8.207 36.822-8.01 37.616.491 37.51 22.545 37.408 43.873l-.009 122.277a23.605 23.605 0 0 1 -23.6 23.6h-15.516l.614-104.549a6 6 0 0 0 -12-.07l-.683 116.221c-.163 5.662-2 9.686-5.613 12.3-8.22 5.949-24.121 4.292-33.934 2.234a27.326 27.326 0 0 0 .361-4.441v-65.488a6.167 6.167 0 0 0 -5.815-6.249 6 6 0 0 0 -6.185 6v65.742a15.2 15.2 0 0 1 -1.3 6.177c-.029.063-.058.126-.085.19a15.315 15.315 0 0 1 -13.9 8.932h-14.318a33.817 33.817 0 0 1 -33.817-33.817v-92.966a6 6 0 0 0 -12 0v38.3c-43.5-9.5-81.978-31.345-108.945-62.009a183.035 183.035 0 0 1 -35.743-62.159c-8.64-25.317-12.532-53.623-11.566-84.136z"/><path d="m256 318.5a6 6 0 0 0 6-6v-2.061a6 6 0 0 0 -12 0v2.061a6 6 0 0 0 6 6z"/><path d="m256 413.974a6 6 0 0 0 6-6v-77.174a6 6 0 0 0 -12 0v77.177a6 6 0 0 0 6 5.997z"/></g></svg>